<?xml version="1.0" encoding="utf-8"?>
<!-- Generator: Adobe Illustrator 27.1.1, SVG Export Plug-In . SVG Version: 6.00 Build 0)  -->
<svg version="1.1" id="Layer_1" xmlns="http://www.w3.org/2000/svg" xmlns:xlink="http://www.w3.org/1999/xlink" x="0px" y="0px"
	 viewBox="0 0 500 500" style="enable-background:new 0 0 500 500;" xml:space="preserve">
<style type="text/css">
	.st0{fill:#FFFFFF;}
	.st1{clip-path:url(#SVGID_00000067218438728630125340000002723312247397750422_);}
	.st2{fill:none;stroke:#000000;stroke-width:6;}
	.st3{clip-path:url(#SVGID_00000057126967791062564590000015711946736817050029_);}
</style>
<rect x="53" y="181" class="st0" width="397.9" height="165.4"/>
<g>
	<defs>
		<rect id="SVGID_1_" x="75.3" y="202" width="349" height="96"/>
	</defs>
	<clipPath id="SVGID_00000100363332383844118990000014312785668091485586_">
		<use xlink:href="#SVGID_1_"  style="overflow:visible;"/>
	</clipPath>
	<g style="clip-path:url(#SVGID_00000100363332383844118990000014312785668091485586_);">
		<path class="st2" d="M75.3,202h349v96h-349V202z"/>
	</g>
</g>
<g>
	<defs>
		<rect id="SVGID_00000106108861866242005170000005056313293575807658_" x="84.7" y="211" width="165" height="78"/>
	</defs>
	<clipPath id="SVGID_00000156574973318813898750000006002539123562110108_">
		<use xlink:href="#SVGID_00000106108861866242005170000005056313293575807658_"  style="overflow:visible;"/>
	</clipPath>
	<g style="clip-path:url(#SVGID_00000156574973318813898750000006002539123562110108_);">
		<path d="M84.7,211h165v78h-165V211z"/>
	</g>
</g>
<g>
	<g transform="translate(68.397457, 194.041302)">
		<g>
			<path class="st0" d="M25.6,64.7H28V50.1l6.3,9.5h2l6.3-9.5v14.6H45V45.6h-2.2l-7.4,11.3l-7.5-11.3h-2.2V64.7z"/>
		</g>
	</g>
</g>
<g>
	<g transform="translate(88.642299, 194.041302)">
		<g>
			<path class="st0" d="M30,64.7h2.6l1.7-4.3h9.3l1.8,4.3h2.5l-7.8-19.1h-2.2L30,64.7z M35.2,58.1L39,49l3.7,9.1H35.2z"/>
		</g>
	</g>
</g>
<g>
	<g transform="translate(104.315867, 194.041302)">
		<g>
			<path class="st0" d="M46,65c4.6,0,8.4-2.8,9.5-7.1H53c-1,2.9-3.7,4.7-6.9,4.7c-4.2,0-7.3-3.1-7.3-7.5c0-4.4,3-7.5,7.3-7.5
				c3.2,0,5.7,1.7,6.7,4.4h2.6c-1.2-4.2-4.9-6.8-9.4-6.8c-5.6,0-9.6,4.1-9.6,9.9S40.4,65,46,65z"/>
		</g>
	</g>
</g>
<g>
	<g transform="translate(122.519963, 194.041302)">
		<g>
			<path class="st0" d="M56.1,64.7h2.4V45.6h-2.4v8.2H46v-8.2h-2.4v19.1H46v-8.6h10.1V64.7z"/>
		</g>
	</g>
</g>
<g>
	<g transform="translate(139.397577, 194.041302)">
		<g>
			<path class="st0" d="M49.2,64.7h2.4V45.6h-2.4V64.7z"/>
		</g>
	</g>
</g>
<g>
	<g transform="translate(146.908151, 194.041302)">
		<g>
			<path class="st0" d="M51.7,64.7h2.4V49.8l10.5,14.9h2.2V45.6h-2.3v14.9L54,45.6h-2.3V64.7z"/>
		</g>
	</g>
</g>
<g>
	<g transform="translate(163.969432, 194.041302)">
		<g>
			<path class="st0" d="M57.4,64.7h11.9v-2.2h-9.5v-6.4h8.5v-2.2h-8.5v-6H69v-2.2H57.4V64.7z"/>
		</g>
	</g>
</g>
<g>
	<g transform="translate(198.72982, 194.285266)">
		<g>
			<path d="M68.3,64.8h13.4v-5.1h-7.8V45.6h-5.5V64.8z"/>
		</g>
	</g>
</g>
<g>
	<g transform="translate(210.797475, 194.285266)">
		<g>
			<path d="M72.3,64.8h13.5v-4.5h-8v-3h6.9v-4.4h-6.9V50h7.7v-4.5H72.3V64.8z"/>
		</g>
	</g>
</g>
<g>
	<g transform="translate(223.337966, 194.285266)">
		<g>
			<path d="M74.6,64.8h5.9l1-2.7H88l1,2.7H95l-7.5-19.2H82L74.6,64.8z M82.6,58l2.1-5.9l2.1,5.9H82.6z"/>
		</g>
	</g>
</g>
<g>
	<g transform="translate(238.838835, 194.285266)">
		<g>
			<path d="M81.6,64.8h5.5v-5.5h2.1l2.7,5.5h6.3l-3.5-6.5c2-1.1,3.2-3.2,3.2-5.8c0-4.2-2.9-6.9-7.5-6.9h-8.7V64.8z M87.1,54.9v-4.8
				h2.6c1.8,0,2.7,0.8,2.7,2.4c0,1.5-1,2.4-2.7,2.4H87.1z"/>
		</g>
	</g>
</g>
<g>
	<g transform="translate(253.64073, 194.285266)">
		<g>
			<path d="M86.6,64.8h5.5V55l7.3,9.8h4.5V45.6h-5.5v9.7l-7.3-9.7h-4.5V64.8z"/>
		</g>
	</g>
</g>
<g>
	<g transform="translate(269.655557, 194.285266)">
		<g>
			<path d="M91.9,64.8h5.5V45.6h-5.5V64.8z"/>
		</g>
	</g>
</g>
<g>
	<g transform="translate(276.850926, 194.285266)">
		<g>
			<path d="M94.3,64.8h5.5V55l7.3,9.8h4.5V45.6h-5.5v9.7l-7.3-9.7h-4.5V64.8z"/>
		</g>
	</g>
</g>
<g>
	<g transform="translate(292.865753, 194.285266)">
		<g>
			<path d="M108.8,65.2c6.6,0,10.8-4.8,10.1-11.5h-11.1v3.9h5.3c-0.5,1.6-2.1,2.7-4.3,2.7c-3.1,0-4.9-2.2-4.9-5.1
				c0-3,1.9-5.1,4.8-5.1c1.7,0,3.2,0.7,3.9,1.9h5.9c-1.1-4.2-5-6.9-9.9-6.9c-6,0-10.2,4.1-10.2,10C98.6,61.1,102.7,65.2,108.8,65.2z
				"/>
		</g>
	</g>
</g>
<g>
	<g transform="translate(70.118174, 236.02311)">
		<g>
			<path d="M31.1,74.3c0,1.4-0.4,2.5-1.1,3.3c-0.8,0.7-1.9,1.1-3.3,1.1h-2.1v-8.6h2.3c1.4,0,2.4,0.4,3.1,1.1
				C30.7,71.9,31.1,72.9,31.1,74.3z M30.4,74.3c0-1.2-0.3-2.2-0.9-2.8c-0.6-0.6-1.5-0.9-2.7-0.9h-1.6v7.5h1.4
				C29.2,78.2,30.4,76.9,30.4,74.3z"/>
		</g>
	</g>
	<g transform="translate(76.472666, 236.02311)">
		<g>
			<path d="M30.8,75.7h-3.5l-1.2,3h-0.7l3.4-8.6h0.4l3.4,8.6H32L30.8,75.7z M27.6,75.1h3.1L29.5,72c-0.1-0.2-0.2-0.6-0.4-1
				c-0.1,0.4-0.2,0.7-0.4,1L27.6,75.1z"/>
		</g>
	</g>
	<g transform="translate(81.873545, 236.02311)">
		<g>
			<path d="M30.7,78.7h-0.6v-8h-2.8v-0.6h6.2v0.6h-2.8V78.7z"/>
		</g>
	</g>
	<g transform="translate(86.588876, 236.02311)">
		<g>
			<path d="M34.2,75.7h-3.5l-1.2,3h-0.7l3.4-8.6h0.4l3.4,8.6h-0.7L34.2,75.7z M30.9,75.1H34L32.8,72c-0.1-0.2-0.2-0.6-0.4-1
				c-0.1,0.4-0.2,0.7-0.4,1L30.9,75.1z"/>
		</g>
	</g>
	<g transform="translate(91.989755, 236.02311)">
	</g>
	<g transform="translate(94.327645, 236.02311)">
		<g>
			<path d="M37.4,76.5c0,0.7-0.3,1.3-0.8,1.7c-0.5,0.4-1.2,0.6-2.1,0.6c-1.1,0-1.9-0.1-2.4-0.4v-0.6c0.6,0.3,1.4,0.4,2.4,0.4
				c0.7,0,1.2-0.2,1.7-0.5c0.4-0.3,0.6-0.7,0.6-1.3c0-0.3-0.1-0.6-0.2-0.8c-0.1-0.2-0.4-0.4-0.7-0.6c-0.3-0.2-0.8-0.4-1.4-0.6
				c-0.9-0.3-1.5-0.6-1.8-1c-0.3-0.3-0.5-0.8-0.5-1.4c0-0.6,0.2-1.2,0.8-1.6c0.5-0.4,1.2-0.6,1.9-0.6c0.8,0,1.6,0.2,2.3,0.5L36.9,71
				c-0.7-0.3-1.4-0.5-2-0.5c-0.6,0-1.1,0.1-1.5,0.4c-0.4,0.3-0.6,0.7-0.6,1.2c0,0.3,0.1,0.6,0.2,0.8c0.1,0.2,0.3,0.4,0.6,0.6
				c0.3,0.2,0.7,0.3,1.4,0.6c0.7,0.2,1.2,0.5,1.5,0.7c0.3,0.2,0.6,0.5,0.7,0.7C37.3,75.7,37.4,76.1,37.4,76.5z"/>
		</g>
	</g>
	<g transform="translate(99.231942, 236.02311)">
		<g>
			<path d="M38,70.5c-1.1,0-1.9,0.3-2.5,1c-0.6,0.7-0.9,1.6-0.9,2.8c0,1.2,0.3,2.2,0.9,2.9c0.6,0.7,1.4,1,2.5,1c0.7,0,1.4-0.1,2-0.3
				v0.5c-0.6,0.2-1.3,0.3-2.1,0.3c-1.2,0-2.1-0.4-2.8-1.2c-0.7-0.8-1-1.9-1-3.3c0-0.9,0.2-1.6,0.5-2.3c0.3-0.7,0.8-1.2,1.4-1.5
				c0.6-0.4,1.3-0.5,2.2-0.5c0.8,0,1.6,0.2,2.2,0.5L39.9,71C39.3,70.7,38.6,70.5,38,70.5z"/>
		</g>
	</g>
	<g transform="translate(104.821785, 236.02311)">
		<g>
			<path d="M36.1,78.7v-8.6h0.6v8.6H36.1z"/>
		</g>
	</g>
	<g transform="translate(107.089363, 236.02311)">
		<g>
			<path d="M41.6,78.7h-4.7v-8.6h4.7v0.5h-4.1v3.2h3.9v0.5h-3.9v3.7h4.1V78.7z"/>
		</g>
	</g>
	<g transform="translate(112.055183, 236.02311)">
		<g>
			<path d="M44.8,78.7h-0.6l-5.1-7.6h-0.1c0.1,0.9,0.1,1.6,0.1,2v5.6h-0.6v-8.6h0.6l5.1,7.6h0c0-0.7-0.1-1.4-0.1-2v-5.6h0.6V78.7z"
				/>
		</g>
	</g>
	<g transform="translate(118.545906, 236.02311)">
		<g>
			<path d="M44.4,70.5c-1.1,0-1.9,0.3-2.5,1c-0.6,0.7-0.9,1.6-0.9,2.8c0,1.2,0.3,2.2,0.9,2.9c0.6,0.7,1.4,1,2.5,1
				c0.7,0,1.4-0.1,2-0.3v0.5c-0.6,0.2-1.3,0.3-2.1,0.3c-1.2,0-2.1-0.4-2.8-1.2c-0.7-0.8-1-1.9-1-3.3c0-0.9,0.2-1.6,0.5-2.3
				c0.3-0.7,0.8-1.2,1.4-1.5c0.6-0.4,1.3-0.5,2.2-0.5c0.8,0,1.6,0.2,2.2,0.5L46.3,71C45.7,70.7,45.1,70.5,44.4,70.5z"/>
		</g>
	</g>
	<g transform="translate(124.135749, 236.02311)">
		<g>
			<path d="M47.3,78.7h-4.7v-8.6h4.7v0.5h-4.1v3.2H47v0.5h-3.9v3.7h4.1V78.7z"/>
		</g>
	</g>
	<g transform="translate(129.101569, 236.02311)">
	</g>
	<g transform="translate(131.439459, 236.02311)">
		<g>
			<path d="M49.1,75.7h-3.5l-1.2,3h-0.7l3.4-8.6h0.4l3.4,8.6h-0.7L49.1,75.7z M45.9,75.1H49L47.8,72c-0.1-0.2-0.2-0.6-0.4-1
				c-0.1,0.4-0.2,0.7-0.4,1L45.9,75.1z"/>
		</g>
	</g>
	<g transform="translate(136.840338, 236.02311)">
		<g>
			<path d="M53.1,78.7h-0.6l-5.1-7.6h-0.1c0.1,0.9,0.1,1.6,0.1,2v5.6h-0.6v-8.6h0.6l5.1,7.6h0c0-0.7-0.1-1.4-0.1-2v-5.6h0.6V78.7z"
				/>
		</g>
	</g>
	<g transform="translate(143.33106, 236.02311)">
		<g>
			<path d="M55.5,74.3c0,1.4-0.4,2.5-1.1,3.3c-0.8,0.7-1.9,1.1-3.3,1.1H49v-8.6h2.3c1.4,0,2.4,0.4,3.1,1.1
				C55.1,71.9,55.5,72.9,55.5,74.3z M54.8,74.3c0-1.2-0.3-2.2-0.9-2.8c-0.6-0.6-1.5-0.9-2.7-0.9h-1.6v7.5H51
				C53.6,78.2,54.8,76.9,54.8,74.3z"/>
		</g>
	</g>
	<g transform="translate(149.685552, 236.02311)">
	</g>
	<g transform="translate(152.023443, 236.02311)">
		<g>
			<path d="M55.7,78.7l-3.2-7.9h0c0,0.5,0,1,0,1.5v6.4h-0.6v-8.6h0.9l3,7.5h0l3-7.5h0.9v8.6h-0.6v-6.5c0-0.4,0-0.9,0.1-1.4h0
				L56,78.7H55.7z"/>
		</g>
	</g>
	<g transform="translate(159.788579, 236.02311)">
		<g>
			<path d="M58.6,75.7h-3.5l-1.2,3h-0.7l3.4-8.6h0.4l3.4,8.6h-0.7L58.6,75.7z M55.3,75.1h3.1L57.2,72c-0.1-0.2-0.2-0.6-0.4-1
				c-0.1,0.4-0.2,0.7-0.4,1L55.3,75.1z"/>
		</g>
	</g>
	<g transform="translate(165.189457, 236.02311)">
		<g>
			<path d="M59.9,70.5c-1.1,0-1.9,0.3-2.5,1c-0.6,0.7-0.9,1.6-0.9,2.8c0,1.2,0.3,2.2,0.9,2.9c0.6,0.7,1.4,1,2.5,1
				c0.7,0,1.4-0.1,2-0.3v0.5c-0.6,0.2-1.3,0.3-2.1,0.3c-1.2,0-2.1-0.4-2.8-1.2c-0.7-0.8-1-1.9-1-3.3c0-0.9,0.2-1.6,0.5-2.3
				c0.3-0.7,0.8-1.2,1.4-1.5c0.6-0.4,1.3-0.5,2.2-0.5c0.8,0,1.6,0.2,2.2,0.5L61.9,71C61.3,70.7,60.6,70.5,59.9,70.5z"/>
		</g>
	</g>
	<g transform="translate(170.779301, 236.02311)">
		<g>
			<path d="M64.3,78.7h-0.6v-4.2h-5v4.2h-0.6v-8.6h0.6v3.8h5v-3.8h0.6V78.7z"/>
		</g>
	</g>
	<g transform="translate(177.252445, 236.02311)">
		<g>
			<path d="M60.3,78.7v-8.6h0.6v8.6H60.3z"/>
		</g>
	</g>
	<g transform="translate(179.520023, 236.02311)">
		<g>
			<path d="M67.3,78.7h-0.6l-5.1-7.6h-0.1c0.1,0.9,0.1,1.6,0.1,2v5.6H61v-8.6h0.6l5.1,7.6h0c0-0.7-0.1-1.4-0.1-2v-5.6h0.6V78.7z"/>
		</g>
	</g>
	<g transform="translate(186.010745, 236.02311)">
		<g>
			<path d="M67.9,78.7h-4.7v-8.6h4.7v0.5h-4.1v3.2h3.9v0.5h-3.9v3.7h4.1V78.7z"/>
		</g>
	</g>
	<g transform="translate(190.976565, 236.02311)">
	</g>
	<g transform="translate(193.314456, 236.02311)">
		<g>
			<path d="M65.6,78.7v-8.6h0.6v8h4.1v0.6H65.6z"/>
		</g>
	</g>
	<g transform="translate(197.933108, 236.02311)">
		<g>
			<path d="M71.9,78.7h-4.7v-8.6h4.7v0.5h-4.1v3.2h3.9v0.5h-3.9v3.7h4.1V78.7z"/>
		</g>
	</g>
	<g transform="translate(202.898928, 236.02311)">
		<g>
			<path d="M73,75.7h-3.5l-1.2,3h-0.7l3.4-8.6h0.4l3.4,8.6h-0.7L73,75.7z M69.7,75.1h3.1L71.6,72c-0.1-0.2-0.2-0.6-0.4-1
				c-0.1,0.4-0.2,0.7-0.4,1L69.7,75.1z"/>
		</g>
	</g>
	<g transform="translate(208.299806, 236.02311)">
		<g>
			<path d="M71.2,74.9v3.7h-0.6v-8.6h2c1.1,0,1.9,0.2,2.4,0.6c0.5,0.4,0.8,1,0.8,1.8c0,0.6-0.2,1.1-0.5,1.5
				c-0.3,0.4-0.8,0.7-1.4,0.9l2.3,3.9h-0.7l-2.2-3.7H71.2z M71.2,74.4h1.6c0.7,0,1.3-0.2,1.7-0.5c0.4-0.3,0.6-0.8,0.6-1.4
				c0-0.7-0.2-1.1-0.6-1.4c-0.4-0.3-1-0.4-1.9-0.4h-1.4V74.4z"/>
		</g>
	</g>
	<g transform="translate(213.64795, 236.02311)">
		<g>
			<path d="M78.7,78.7H78L73,71.1h-0.1c0.1,0.9,0.1,1.6,0.1,2v5.6h-0.6v-8.6H73l5.1,7.6h0c0-0.7-0.1-1.4-0.1-2v-5.6h0.6V78.7z"/>
		</g>
	</g>
	<g transform="translate(220.138673, 236.02311)">
		<g>
			<path d="M74.6,78.7v-8.6h0.6v8.6H74.6z"/>
		</g>
	</g>
	<g transform="translate(222.406251, 236.02311)">
		<g>
			<path d="M81.6,78.7H81l-5.1-7.6h-0.1c0.1,0.9,0.1,1.6,0.1,2v5.6h-0.6v-8.6h0.6l5.1,7.6h0c0-0.7-0.1-1.4-0.1-2v-5.6h0.6V78.7z"/>
		</g>
	</g>
	<g transform="translate(228.896973, 236.02311)">
		<g>
			<path d="M80.9,74.4H84v3.9c-0.8,0.4-1.8,0.5-2.8,0.5c-1.3,0-2.4-0.4-3.1-1.1c-0.7-0.8-1.1-1.8-1.1-3.2c0-0.9,0.2-1.6,0.5-2.3
				c0.4-0.7,0.9-1.2,1.5-1.6c0.7-0.4,1.4-0.6,2.3-0.6c0.9,0,1.8,0.2,2.5,0.5L83.7,71c-0.7-0.3-1.5-0.5-2.3-0.5c-1.1,0-2,0.4-2.7,1.1
				c-0.7,0.7-1,1.6-1,2.8c0,1.3,0.3,2.3,0.9,2.9c0.6,0.6,1.5,1,2.8,1c0.8,0,1.5-0.1,2-0.3v-3h-2.5V74.4z"/>
		</g>
	</g>
	<g transform="translate(235.405273, 236.02311)">
	</g>
	<g transform="translate(237.743164, 236.02311)">
		<g>
			<path d="M84.2,78.7L81,70.8h0c0,0.5,0,1,0,1.5v6.4h-0.6v-8.6h0.9l3,7.5h0l3-7.5h0.9v8.6h-0.6v-6.5c0-0.4,0-0.9,0.1-1.4h0
				l-3.2,7.9H84.2z"/>
		</g>
	</g>
	<g transform="translate(245.5083, 236.02311)">
		<g>
			<path d="M87.7,78.7H83v-8.6h4.7v0.5h-4.1v3.2h3.9v0.5h-3.9v3.7h4.1V78.7z"/>
		</g>
	</g>
	<g transform="translate(250.47412, 236.02311)">
		<g>
			<path d="M86.9,78.7h-0.6v-8h-2.8v-0.6h6.2v0.6h-2.8V78.7z"/>
		</g>
	</g>
	<g transform="translate(255.189452, 236.02311)">
		<g>
			<path d="M92.5,78.7h-0.6v-4.2h-5v4.2h-0.6v-8.6h0.6v3.8h5v-3.8h0.6V78.7z"/>
		</g>
	</g>
	<g transform="translate(261.662596, 236.02311)">
		<g>
			<path d="M95.6,74.4c0,1.4-0.3,2.4-1,3.2c-0.7,0.8-1.6,1.2-2.8,1.2c-1.2,0-2.1-0.4-2.8-1.2c-0.7-0.8-1-1.9-1-3.2
				c0-1.4,0.3-2.4,1-3.2c0.7-0.8,1.6-1.2,2.8-1.2c1.2,0,2.1,0.4,2.8,1.2C95.3,71.9,95.6,73,95.6,74.4z M88.6,74.4
				c0,1.2,0.3,2.2,0.8,2.9c0.5,0.7,1.3,1,2.4,1c1,0,1.8-0.3,2.4-1c0.6-0.7,0.8-1.6,0.8-2.9c0-1.2-0.3-2.2-0.8-2.8
				c-0.5-0.7-1.3-1-2.3-1c-1,0-1.8,0.3-2.4,1C88.9,72.2,88.6,73.2,88.6,74.4z"/>
		</g>
	</g>
	<g transform="translate(268.540037, 236.02311)">
		<g>
			<path d="M97.2,74.3c0,1.4-0.4,2.5-1.1,3.3c-0.8,0.7-1.9,1.1-3.3,1.1h-2.1v-8.6H93c1.4,0,2.4,0.4,3.1,1.1
				C96.9,71.9,97.2,72.9,97.2,74.3z M96.6,74.3c0-1.2-0.3-2.2-0.9-2.8c-0.6-0.6-1.5-0.9-2.7-0.9h-1.6v7.5h1.4
				C95.3,78.2,96.6,76.9,96.6,74.3z"/>
		</g>
	</g>
	<g transform="translate(274.894529, 236.02311)">
		<g>
			<path d="M100,74.4c0,1.4-0.3,2.4-1,3.2c-0.7,0.8-1.6,1.2-2.8,1.2c-1.2,0-2.1-0.4-2.8-1.2c-0.7-0.8-1-1.9-1-3.2
				c0-1.4,0.3-2.4,1-3.2c0.7-0.8,1.6-1.2,2.8-1.2c1.2,0,2.1,0.4,2.8,1.2C99.7,71.9,100,73,100,74.4z M93,74.4c0,1.2,0.3,2.2,0.8,2.9
				c0.5,0.7,1.3,1,2.4,1c1,0,1.8-0.3,2.4-1c0.6-0.7,0.8-1.6,0.8-2.9c0-1.2-0.3-2.2-0.8-2.8c-0.5-0.7-1.3-1-2.3-1c-1,0-1.8,0.3-2.4,1
				C93.3,72.2,93,73.2,93,74.4z"/>
		</g>
	</g>
	<g transform="translate(281.77197, 236.02311)">
		<g>
			<path d="M95.1,78.7v-8.6h0.6v8h4.1v0.6H95.1z"/>
		</g>
	</g>
	<g transform="translate(286.390622, 236.02311)">
		<g>
			<path d="M103.9,74.4c0,1.4-0.3,2.4-1,3.2c-0.7,0.8-1.6,1.2-2.8,1.2c-1.2,0-2.1-0.4-2.8-1.2c-0.7-0.8-1-1.9-1-3.2
				c0-1.4,0.3-2.4,1-3.2c0.7-0.8,1.6-1.2,2.8-1.2c1.2,0,2.1,0.4,2.8,1.2C103.5,71.9,103.9,73,103.9,74.4z M96.9,74.4
				c0,1.2,0.3,2.2,0.8,2.9c0.5,0.7,1.3,1,2.4,1c1,0,1.8-0.3,2.4-1c0.6-0.7,0.8-1.6,0.8-2.9c0-1.2-0.3-2.2-0.8-2.8
				c-0.5-0.7-1.3-1-2.3-1c-1,0-1.8,0.3-2.4,1C97.2,72.2,96.9,73.2,96.9,74.4z"/>
		</g>
	</g>
	<g transform="translate(293.268063, 236.02311)">
		<g>
			<path d="M102.3,74.4h3.2v3.9c-0.8,0.4-1.8,0.5-2.8,0.5c-1.3,0-2.4-0.4-3.1-1.1c-0.7-0.8-1.1-1.8-1.1-3.2c0-0.9,0.2-1.6,0.5-2.3
				c0.4-0.7,0.9-1.2,1.5-1.6c0.7-0.4,1.4-0.6,2.3-0.6c0.9,0,1.8,0.2,2.5,0.5l-0.2,0.5c-0.7-0.3-1.5-0.5-2.3-0.5
				c-1.1,0-2,0.4-2.7,1.1c-0.7,0.7-1,1.6-1,2.8c0,1.3,0.3,2.3,0.9,2.9c0.6,0.6,1.5,1,2.8,1c0.8,0,1.5-0.1,2-0.3v-3h-2.5V74.4z"/>
		</g>
	</g>
	<g transform="translate(299.776363, 236.02311)">
		<g>
			<path d="M103.1,74.8l2.5-4.7h0.6l-2.9,5.2v3.3h-0.6v-3.3l-2.9-5.3h0.7L103.1,74.8z"/>
		</g>
	</g>
</g>
<g>
	<g transform="translate(115.31739, 248.023109)">
		<g>
			<path d="M46.1,78.3c0,1.4-0.4,2.5-1.1,3.3c-0.8,0.7-1.9,1.1-3.3,1.1h-2.1v-8.6H42c1.4,0,2.4,0.4,3.1,1.1
				C45.8,75.9,46.1,76.9,46.1,78.3z M45.5,78.3c0-1.2-0.3-2.2-0.9-2.8c-0.6-0.6-1.5-0.9-2.7-0.9h-1.6v7.5h1.4
				C44.2,82.2,45.5,80.9,45.5,78.3z"/>
		</g>
	</g>
	<g transform="translate(121.671882, 248.023109)">
		<g>
			<path d="M41.8,82.7v-8.6h0.6v8.6H41.8z"/>
		</g>
	</g>
	<g transform="translate(123.93946, 248.023109)">
		<g>
			<path d="M47.3,80.5c0,0.7-0.3,1.3-0.8,1.7c-0.5,0.4-1.2,0.6-2.1,0.6c-1.1,0-1.9-0.1-2.4-0.4v-0.6c0.6,0.3,1.4,0.4,2.4,0.4
				c0.7,0,1.2-0.2,1.7-0.5c0.4-0.3,0.6-0.7,0.6-1.3c0-0.3-0.1-0.6-0.2-0.8c-0.1-0.2-0.4-0.4-0.7-0.6c-0.3-0.2-0.8-0.4-1.4-0.6
				c-0.9-0.3-1.5-0.6-1.8-1c-0.3-0.3-0.5-0.8-0.5-1.4c0-0.6,0.2-1.2,0.8-1.6c0.5-0.4,1.2-0.6,1.9-0.6c0.8,0,1.6,0.2,2.3,0.5L46.8,75
				c-0.7-0.3-1.4-0.5-2-0.5c-0.6,0-1.1,0.1-1.5,0.4c-0.4,0.3-0.6,0.7-0.6,1.2c0,0.3,0.1,0.6,0.2,0.8c0.1,0.2,0.3,0.4,0.6,0.6
				c0.3,0.2,0.7,0.3,1.4,0.6c0.7,0.2,1.2,0.5,1.5,0.7c0.3,0.2,0.6,0.5,0.7,0.7C47.2,79.7,47.3,80.1,47.3,80.5z"/>
		</g>
	</g>
	<g transform="translate(128.843756, 248.023109)">
		<g>
			<path d="M48.9,80.5c0,0.7-0.3,1.3-0.8,1.7c-0.5,0.4-1.2,0.6-2.1,0.6c-1.1,0-1.9-0.1-2.4-0.4v-0.6c0.6,0.3,1.4,0.4,2.4,0.4
				c0.7,0,1.2-0.2,1.7-0.5c0.4-0.3,0.6-0.7,0.6-1.3c0-0.3-0.1-0.6-0.2-0.8c-0.1-0.2-0.4-0.4-0.7-0.6c-0.3-0.2-0.8-0.4-1.4-0.6
				c-0.9-0.3-1.5-0.6-1.8-1c-0.3-0.3-0.5-0.8-0.5-1.4c0-0.6,0.2-1.2,0.8-1.6c0.5-0.4,1.2-0.6,1.9-0.6c0.8,0,1.6,0.2,2.3,0.5L48.4,75
				c-0.7-0.3-1.4-0.5-2-0.5c-0.6,0-1.1,0.1-1.5,0.4c-0.4,0.3-0.6,0.7-0.6,1.2c0,0.3,0.1,0.6,0.2,0.8c0.1,0.2,0.3,0.4,0.6,0.6
				c0.3,0.2,0.7,0.3,1.4,0.6c0.7,0.2,1.2,0.5,1.5,0.7c0.3,0.2,0.6,0.5,0.7,0.7C48.8,79.7,48.9,80.1,48.9,80.5z"/>
		</g>
	</g>
	<g transform="translate(133.748053, 248.023109)">
		<g>
			<path d="M50.5,82.7h-4.7v-8.6h4.7v0.5h-4.1v3.2h3.9v0.5h-3.9v3.7h4.1V82.7z"/>
		</g>
	</g>
	<g transform="translate(138.713873, 248.023109)">
		<g>
			<path d="M51.2,82.7L48,74.8h0c0,0.5,0,1,0,1.5v6.4h-0.6v-8.6h0.9l3,7.5h0l3-7.5h0.9v8.6h-0.6v-6.5c0-0.4,0-0.9,0.1-1.4h0
				l-3.2,7.9H51.2z"/>
		</g>
	</g>
	<g transform="translate(146.479009, 248.023109)">
		<g>
			<path d="M50,82.7v-8.6h0.6v8.6H50z"/>
		</g>
	</g>
	<g transform="translate(148.746587, 248.023109)">
		<g>
			<path d="M57,82.7h-0.6l-5.1-7.6h-0.1c0.1,0.9,0.1,1.6,0.1,2v5.6h-0.6v-8.6h0.6l5.1,7.6h0c0-0.7-0.1-1.4-0.1-2v-5.6H57V82.7z"/>
		</g>
	</g>
	<g transform="translate(155.237309, 248.023109)">
		<g>
			<path d="M57.1,79.7h-3.5l-1.2,3h-0.7l3.4-8.6h0.4l3.4,8.6h-0.7L57.1,79.7z M53.8,79.1h3.1L55.7,76c-0.1-0.2-0.2-0.6-0.4-1
				c-0.1,0.4-0.2,0.7-0.4,1L53.8,79.1z"/>
		</g>
	</g>
	<g transform="translate(160.638188, 248.023109)">
		<g>
			<path d="M57,82.7h-0.6v-8h-2.8v-0.6h6.2v0.6H57V82.7z"/>
		</g>
	</g>
	<g transform="translate(165.35352, 248.023109)">
		<g>
			<path d="M56.3,82.7v-8.6h0.6v8.6H56.3z"/>
		</g>
	</g>
	<g transform="translate(167.621098, 248.023109)">
		<g>
			<path d="M64.3,78.4c0,1.4-0.3,2.4-1,3.2c-0.7,0.8-1.6,1.2-2.8,1.2c-1.2,0-2.1-0.4-2.8-1.2c-0.7-0.8-1-1.9-1-3.2
				c0-1.4,0.3-2.4,1-3.2c0.7-0.8,1.6-1.2,2.8-1.2c1.2,0,2.1,0.4,2.8,1.2C63.9,75.9,64.3,77,64.3,78.4z M57.3,78.4
				c0,1.2,0.3,2.2,0.8,2.9c0.5,0.7,1.3,1,2.4,1c1,0,1.8-0.3,2.4-1c0.6-0.7,0.8-1.6,0.8-2.9c0-1.2-0.3-2.2-0.8-2.8
				c-0.5-0.7-1.3-1-2.3-1c-1,0-1.8,0.3-2.4,1C57.6,76.2,57.3,77.2,57.3,78.4z"/>
		</g>
	</g>
	<g transform="translate(174.498539, 248.023109)">
		<g>
			<path d="M65.6,82.7H65l-5.1-7.6h-0.1c0.1,0.9,0.1,1.6,0.1,2v5.6h-0.6v-8.6H60l5.1,7.6h0c0-0.7-0.1-1.4-0.1-2v-5.6h0.6V82.7z"/>
		</g>
	</g>
	<g transform="translate(180.989261, 248.023109)">
	</g>
	<g transform="translate(183.327151, 248.023109)">
		<g>
			<path d="M62.3,82.7v-8.6h0.6v8.6H62.3z"/>
		</g>
	</g>
	<g transform="translate(185.59473, 248.023109)">
		<g>
			<path d="M69.3,82.7h-0.6l-5.1-7.6h-0.1c0.1,0.9,0.1,1.6,0.1,2v5.6h-0.6v-8.6h0.6l5.1,7.6h0c0-0.7-0.1-1.4-0.1-2v-5.6h0.6V82.7z"
				/>
		</g>
	</g>
	<g transform="translate(192.085452, 248.023109)">
	</g>
	<g transform="translate(194.423342, 248.023109)">
		<g>
			<path d="M66,82.7v-8.6h0.6v8h4.1v0.6H66z"/>
		</g>
	</g>
	<g transform="translate(199.041994, 248.023109)">
		<g>
			<path d="M71.7,79.7h-3.5l-1.2,3h-0.7l3.4-8.6h0.4l3.4,8.6h-0.7L71.7,79.7z M68.4,79.1h3.1L70.3,76c-0.1-0.2-0.2-0.6-0.4-1
				c-0.1,0.4-0.2,0.7-0.4,1L68.4,79.1z"/>
		</g>
	</g>
	<g transform="translate(204.442873, 248.023109)">
		<g>
			<path d="M71.6,82.7H71v-8h-2.8v-0.6h6.2v0.6h-2.8V82.7z"/>
		</g>
	</g>
	<g transform="translate(209.158205, 248.023109)">
		<g>
			<path d="M70.9,82.7v-8.6h0.6v8.6H70.9z"/>
		</g>
	</g>
	<g transform="translate(211.425783, 248.023109)">
		<g>
			<path d="M77.9,82.7h-0.6l-5.1-7.6h-0.1c0.1,0.9,0.1,1.6,0.1,2v5.6h-0.6v-8.6h0.6l5.1,7.6h0c0-0.7-0.1-1.4-0.1-2v-5.6h0.6V82.7z"
				/>
		</g>
	</g>
	<g transform="translate(217.916505, 248.023109)">
	</g>
	<g transform="translate(220.254395, 248.023109)">
		<g>
			<path d="M78.8,79.7h-3.5l-1.2,3h-0.7l3.4-8.6h0.4l3.4,8.6h-0.7L78.8,79.7z M75.5,79.1h3.1L77.4,76c-0.1-0.2-0.2-0.6-0.4-1
				c-0.1,0.4-0.2,0.7-0.4,1L75.5,79.1z"/>
		</g>
	</g>
	<g transform="translate(225.655274, 248.023109)">
		<g>
			<path d="M80.2,82.7L77,74.8h0c0,0.5,0,1,0,1.5v6.4h-0.6v-8.6h0.9l3,7.5h0l3-7.5h0.9v8.6h-0.6v-6.5c0-0.4,0-0.9,0.1-1.4h0
				l-3.2,7.9H80.2z"/>
		</g>
	</g>
	<g transform="translate(233.42041, 248.023109)">
		<g>
			<path d="M83.7,82.7H79v-8.6h4.7v0.5h-4.1v3.2h3.9v0.5h-3.9v3.7h4.1V82.7z"/>
		</g>
	</g>
	<g transform="translate(238.38623, 248.023109)">
		<g>
			<path d="M81.3,78.9v3.7h-0.6v-8.6h2c1.1,0,1.9,0.2,2.4,0.6c0.5,0.4,0.8,1,0.8,1.8c0,0.6-0.2,1.1-0.5,1.5
				c-0.3,0.4-0.8,0.7-1.4,0.9l2.3,3.9h-0.7l-2.2-3.7H81.3z M81.3,78.4h1.6c0.7,0,1.3-0.2,1.7-0.5c0.4-0.3,0.6-0.8,0.6-1.4
				c0-0.7-0.2-1.1-0.6-1.4c-0.4-0.3-1-0.4-1.9-0.4h-1.4V78.4z"/>
		</g>
	</g>
	<g transform="translate(243.734374, 248.023109)">
		<g>
			<path d="M82.5,82.7v-8.6h0.6v8.6H82.5z"/>
		</g>
	</g>
	<g transform="translate(246.001952, 248.023109)">
		<g>
			<path d="M86.9,74.5c-1.1,0-1.9,0.3-2.5,1c-0.6,0.7-0.9,1.6-0.9,2.8c0,1.2,0.3,2.2,0.9,2.9c0.6,0.7,1.4,1,2.5,1
				c0.7,0,1.4-0.1,2-0.3v0.5c-0.6,0.2-1.3,0.3-2.1,0.3c-1.2,0-2.1-0.4-2.8-1.2c-0.7-0.8-1-1.9-1-3.3c0-0.9,0.2-1.6,0.5-2.3
				c0.3-0.7,0.8-1.2,1.4-1.5c0.6-0.4,1.3-0.5,2.2-0.5c0.8,0,1.6,0.2,2.2,0.5L88.8,75C88.2,74.7,87.6,74.5,86.9,74.5z"/>
		</g>
	</g>
	<g transform="translate(251.591796, 248.023109)">
		<g>
			<path d="M89.2,79.7h-3.5l-1.2,3h-0.7l3.4-8.6h0.4l3.4,8.6h-0.7L89.2,79.7z M85.9,79.1H89L87.8,76c-0.1-0.2-0.2-0.6-0.4-1
				c-0.1,0.4-0.2,0.7-0.4,1L85.9,79.1z"/>
		</g>
	</g>
</g>
<g>
	<g transform="translate(256.997068, 248.023109)">
	</g>
</g>
</svg>
