<?xml version="1.0" encoding="UTF-8"?>
<svg id="Layer_1" data-name="Layer 1" xmlns="http://www.w3.org/2000/svg" xmlns:xlink="http://www.w3.org/1999/xlink" viewBox="0 0 397.92 165.42">
  <defs>
    <style>
      .cls-1, .cls-2 {
        fill: none;
      }

      .cls-3 {
        clip-path: url(#clippath);
      }

      .cls-4 {
        fill: #fff;
      }

      .cls-5 {
        clip-path: url(#clippath-1);
      }

      .cls-2 {
        stroke: #000;
        stroke-width: 6px;
      }
    </style>
    <clipPath id="clippath">
      <rect class="cls-1" x="22.32" y="20.95" width="349" height="96"/>
    </clipPath>
    <clipPath id="clippath-1">
      <rect class="cls-1" x="31.74" y="29.98" width="165.03" height="78.03"/>
    </clipPath>
  </defs>
  <rect class="cls-4" width="397.92" height="165.42"/>
  <g class="cls-3">
    <path class="cls-2" d="m22.32,20.95h349v96H22.32V20.95Z"/>
  </g>
  <g class="cls-5">
    <path d="m31.74,29.98h165.03v78.03H31.74V29.98Z"/>
  </g>
  <path class="cls-4" d="m40.97,77.72h2.4v-14.59l6.31,9.53h1.96l6.31-9.5v14.56h2.4v-19.05h-2.23l-7.43,11.3-7.48-11.3h-2.23v19.05Z"/>
  <path class="cls-4" d="m65.65,77.72h2.56l1.74-4.33h9.28l1.8,4.33h2.53l-7.84-19.05h-2.23l-7.84,19.05Zm5.22-6.56l3.73-9.15,3.73,9.15h-7.46Z"/>
  <path class="cls-4" d="m97.3,78.08c4.63,0,8.39-2.8,9.53-7.05h-2.53c-.98,2.86-3.67,4.66-6.91,4.66-4.24,0-7.27-3.08-7.27-7.48s3.03-7.48,7.27-7.48c3.16,0,5.74,1.69,6.72,4.44h2.56c-1.25-4.19-4.88-6.83-9.36-6.83-5.6,0-9.64,4.14-9.64,9.88s4.03,9.88,9.64,9.88Z"/>
  <path class="cls-4" d="m125.63,77.72h2.4v-19.05h-2.4v8.19h-10.1v-8.19h-2.4v19.05h2.4v-8.57h10.1v8.57Z"/>
  <path class="cls-4" d="m135.64,77.72h2.4v-19.05h-2.4v19.05Z"/>
  <path class="cls-4" d="m145.65,77.72h2.37v-14.92l10.53,14.92h2.23v-19.05h-2.34v14.92l-10.53-14.92h-2.26v19.05Z"/>
  <path class="cls-4" d="m168.4,77.72h11.87v-2.23h-9.47v-6.36h8.49v-2.21h-8.49v-6.02h9.17v-2.23h-11.57v19.05Z"/>
  <path d="m214,78.05h13.38v-5.13h-7.84v-14.06h-5.54v19.19Z"/>
  <path d="m230.09,78.05h13.46v-4.52h-7.98v-2.96h6.94v-4.44h-6.94v-2.8h7.68v-4.47h-13.16v19.19Z"/>
  <path d="m244.92,78.05h5.87l1.04-2.71h6.55l1.04,2.71h5.89l-7.45-19.19h-5.48l-7.46,19.19Zm8.06-6.77l2.14-5.95,2.14,5.95h-4.28Z"/>
  <path d="m267.48,78.05h5.54v-5.45h2.08l2.74,5.45h6.28l-3.54-6.47c2.03-1.13,3.18-3.15,3.18-5.84,0-4.25-2.88-6.88-7.54-6.88h-8.74v19.19Zm5.43-9.87v-4.8h2.57c1.76,0,2.71.85,2.71,2.39s-.96,2.41-2.71,2.41h-2.57Z"/>
  <path d="m287.21,78.05h5.48v-9.79l7.29,9.79h4.49v-19.19h-5.45v9.73l-7.29-9.73h-4.53v19.19Z"/>
  <path d="m308.57,78.05h5.54v-19.19h-5.54v19.19Z"/>
  <path d="m318.16,78.05h5.48v-9.79l7.29,9.79h4.49v-19.19h-5.45v9.73l-7.29-9.73h-4.53v19.19Z"/>
  <path d="m348.67,78.46c6.61,0,10.75-4.8,10.15-11.54h-11.1v3.9h5.29c-.55,1.61-2.08,2.71-4.28,2.71-3.07,0-4.85-2.17-4.85-5.07s1.95-5.07,4.8-5.07c1.7,0,3.16.74,3.9,1.95h5.89c-1.12-4.19-5.02-6.88-9.86-6.88-6.03,0-10.17,4.11-10.17,10.01s4.17,10.01,10.25,10.01Z"/>
  <g>
    <path d="m48.2,129.32c0,1.45-.38,2.54-1.13,3.27-.75.74-1.85,1.1-3.31,1.1h-2.06v-8.56h2.31c1.38,0,2.42.36,3.13,1.08.71.71,1.06,1.74,1.06,3.1Zm-.65.04c0-1.23-.31-2.16-.94-2.77-.63-.63-1.54-.94-2.73-.94h-1.58v7.52h1.42c2.55,0,3.83-1.27,3.83-3.81Z"/>
    <path d="m54.3,130.68h-3.48l-1.19,3.02h-.67l3.44-8.6h.4l3.38,8.6h-.69l-1.19-3.02Zm-3.25-.54h3.06l-1.17-3.08c-.1-.25-.22-.59-.35-1.02-.11.38-.23.72-.35,1.02l-1.19,3.08Z"/>
    <path d="m59.6,133.7h-.6v-8h-2.77v-.56h6.17v.56h-2.79v8Z"/>
    <path d="m67.79,130.68h-3.48l-1.19,3.02h-.67l3.44-8.6h.4l3.38,8.6h-.69l-1.19-3.02Zm-3.25-.54h3.06l-1.17-3.08c-.1-.25-.22-.59-.35-1.02-.11.38-.23.72-.35,1.02l-1.19,3.08Z"/>
    <path d="m78.71,131.49c0,.71-.27,1.28-.79,1.71-.52.42-1.21.63-2.08.63-1.06,0-1.86-.12-2.42-.35v-.6c.63.27,1.42.4,2.38.4.69,0,1.25-.16,1.67-.48.42-.32.63-.74.63-1.27,0-.32-.07-.58-.21-.79-.14-.22-.37-.42-.69-.58-.31-.18-.76-.38-1.35-.58-.88-.3-1.48-.63-1.81-.98-.33-.34-.5-.81-.5-1.4,0-.64.25-1.16.75-1.56.51-.4,1.16-.6,1.94-.6s1.56.16,2.27.46l-.21.52c-.71-.3-1.39-.46-2.04-.46s-1.15.15-1.52.44-.56.7-.56,1.21c0,.31.05.56.17.77.13.21.32.4.58.56.26.16.71.34,1.35.56.67.24,1.17.47,1.5.69.33.21.57.45.73.73.15.28.23.61.23,1Z"/>
    <path d="m84.18,125.55c-1.08,0-1.93.35-2.54,1.04-.61.68-.92,1.62-.92,2.81s.28,2.18.85,2.85c.58.67,1.42,1,2.5,1,.72,0,1.38-.09,1.98-.27v.52c-.56.21-1.27.31-2.13.31-1.2,0-2.14-.39-2.83-1.17-.7-.78-1.04-1.86-1.04-3.27,0-.86.17-1.63.5-2.29s.8-1.18,1.42-1.54c.63-.36,1.34-.54,2.17-.54s1.58.16,2.25.46l-.25.54c-.63-.3-1.28-.46-1.96-.46Z"/>
    <path d="m87.97,133.7v-8.56h.6v8.56h-.6Z"/>
    <path d="m95.68,133.7h-4.69v-8.56h4.69v.54h-4.08v3.25h3.85v.54h-3.85v3.69h4.08v.54Z"/>
    <path d="m103.84,133.7h-.6l-5.06-7.6h-.06c.05.91.08,1.58.08,2.04v5.56h-.58v-8.56h.6l5.06,7.58h.04c-.04-.69-.06-1.36-.06-2v-5.58h.58v8.56Z"/>
    <path d="m109.94,125.55c-1.08,0-1.93.35-2.54,1.04-.61.68-.92,1.62-.92,2.81s.28,2.18.85,2.85c.58.67,1.42,1,2.5,1,.72,0,1.38-.09,1.98-.27v.52c-.56.21-1.27.31-2.13.31-1.2,0-2.14-.39-2.83-1.17-.7-.78-1.04-1.86-1.04-3.27,0-.86.17-1.63.5-2.29s.8-1.18,1.42-1.54c.63-.36,1.34-.54,2.17-.54s1.58.16,2.25.46l-.25.54c-.63-.3-1.28-.46-1.96-.46Z"/>
    <path d="m118.41,133.7h-4.69v-8.56h4.69v.54h-4.08v3.25h3.85v.54h-3.85v3.69h4.08v.54Z"/>
    <path d="m127.59,130.68h-3.48l-1.19,3.02h-.67l3.44-8.6h.4l3.38,8.6h-.69l-1.19-3.02Zm-3.25-.54h3.06l-1.17-3.08c-.1-.25-.22-.59-.35-1.02-.11.38-.23.72-.35,1.02l-1.19,3.08Z"/>
    <path d="m136.89,133.7h-.6l-5.06-7.6h-.06c.05.91.08,1.58.08,2.04v5.56h-.58v-8.56h.6l5.06,7.58h.04c-.04-.69-.06-1.36-.06-2v-5.58h.58v8.56Z"/>
    <path d="m145.82,129.32c0,1.45-.38,2.54-1.13,3.27-.75.74-1.85,1.1-3.31,1.1h-2.06v-8.56h2.31c1.38,0,2.42.36,3.13,1.08.71.71,1.06,1.74,1.06,3.1Zm-.65.04c0-1.23-.31-2.16-.94-2.77-.63-.63-1.54-.94-2.73-.94h-1.58v7.52h1.42c2.55,0,3.83-1.27,3.83-3.81Z"/>
    <path d="m154.68,133.7l-3.19-7.92h-.04c.03.49.04.99.04,1.5v6.42h-.58v-8.56h.94l3.02,7.52h.04l3.04-7.52h.9v8.56h-.6v-6.5c0-.44.02-.91.06-1.4h-.04l-3.21,7.9h-.38Z"/>
    <path d="m165.38,130.68h-3.48l-1.19,3.02h-.67l3.44-8.6h.4l3.38,8.6h-.69l-1.19-3.02Zm-3.25-.54h3.06l-1.17-3.08c-.1-.25-.22-.59-.35-1.02-.11.38-.23.72-.35,1.02l-1.19,3.08Z"/>
    <path d="m172.13,125.55c-1.08,0-1.93.35-2.54,1.04-.61.68-.92,1.62-.92,2.81s.28,2.18.85,2.85c.58.67,1.42,1,2.5,1,.72,0,1.38-.09,1.98-.27v.52c-.56.21-1.27.31-2.13.31-1.2,0-2.14-.39-2.83-1.17-.7-.78-1.04-1.86-1.04-3.27,0-.86.17-1.63.5-2.29s.8-1.18,1.42-1.54c.63-.36,1.34-.54,2.17-.54s1.58.16,2.25.46l-.25.54c-.63-.3-1.28-.46-1.96-.46Z"/>
    <path d="m182.12,133.7h-.6v-4.21h-5v4.21h-.6v-8.56h.6v3.79h5v-3.79h.6v8.56Z"/>
    <path d="m184.54,133.7v-8.56h.6v8.56h-.6Z"/>
    <path d="m193.8,133.7h-.6l-5.06-7.6h-.06c.05.91.08,1.58.08,2.04v5.56h-.58v-8.56h.6l5.06,7.58h.04c-.04-.69-.06-1.36-.06-2v-5.58h.58v8.56Z"/>
    <path d="m200.91,133.7h-4.69v-8.56h4.69v.54h-4.08v3.25h3.85v.54h-3.85v3.69h4.08v.54Z"/>
    <path d="m205.96,133.7v-8.56h.6v8h4.08v.56h-4.69Z"/>
    <path d="m216.81,133.7h-4.69v-8.56h4.69v.54h-4.08v3.25h3.85v.54h-3.85v3.69h4.08v.54Z"/>
    <path d="m222.87,130.68h-3.48l-1.19,3.02h-.67l3.44-8.6h.4l3.38,8.6h-.69l-1.19-3.02Zm-3.25-.54h3.06l-1.17-3.08c-.1-.25-.22-.59-.35-1.02-.11.38-.23.72-.35,1.02l-1.19,3.08Z"/>
    <path d="m226.55,129.97v3.73h-.6v-8.56h2.04c1.07,0,1.85.2,2.35.58.51.39.77.98.77,1.77,0,.57-.16,1.06-.46,1.46-.31.39-.77.68-1.38.85l2.31,3.9h-.71l-2.21-3.73h-2.13Zm0-.52h1.63c.72,0,1.28-.16,1.69-.48.4-.32.6-.8.6-1.44s-.2-1.13-.58-1.42c-.39-.29-1.03-.44-1.92-.44h-1.42v3.77Z"/>
    <path d="m239.3,133.7h-.6l-5.06-7.6h-.06c.05.91.08,1.58.08,2.04v5.56h-.58v-8.56h.6l5.06,7.58h.04c-.04-.69-.06-1.36-.06-2v-5.58h.58v8.56Z"/>
    <path d="m241.73,133.7v-8.56h.6v8.56h-.6Z"/>
    <path d="m250.98,133.7h-.6l-5.06-7.6h-.06c.05.91.08,1.58.08,2.04v5.56h-.58v-8.56h.6l5.06,7.58h.04c-.04-.69-.06-1.36-.06-2v-5.58h.58v8.56Z"/>
    <path d="m256.78,129.38h3.17v3.9c-.83.36-1.77.54-2.81.54-1.35,0-2.39-.38-3.1-1.15-.72-.76-1.08-1.84-1.08-3.25,0-.88.18-1.65.54-2.31.36-.68.88-1.2,1.54-1.56.67-.38,1.43-.56,2.29-.56.93,0,1.76.18,2.5.52l-.23.54c-.74-.34-1.51-.52-2.31-.52-1.13,0-2.02.35-2.69,1.06-.66.7-.98,1.64-.98,2.81,0,1.29.31,2.27.94,2.92.63.64,1.55.96,2.77.96.79,0,1.46-.11,2-.33v-3h-2.54v-.56Z"/>
    <path d="m268.97,133.7l-3.19-7.92h-.04c.03.49.04.99.04,1.5v6.42h-.58v-8.56h.94l3.02,7.52h.04l3.04-7.52h.9v8.56h-.6v-6.5c0-.44.02-.91.06-1.4h-.04l-3.21,7.9h-.38Z"/>
    <path d="m280.24,133.7h-4.69v-8.56h4.69v.54h-4.08v3.25h3.85v.54h-3.85v3.69h4.08v.54Z"/>
    <path d="m284.4,133.7h-.6v-8h-2.77v-.56h6.17v.56h-2.79v8Z"/>
    <path d="m294.67,133.7h-.6v-4.21h-5v4.21h-.6v-8.56h.6v3.79h5v-3.79h.6v8.56Z"/>
    <path d="m304.3,129.41c0,1.36-.34,2.44-1.02,3.23-.68.79-1.62,1.19-2.81,1.19s-2.14-.4-2.81-1.19c-.68-.79-1.02-1.88-1.02-3.25s.34-2.43,1.02-3.21c.69-.79,1.64-1.19,2.83-1.19s2.13.4,2.79,1.19c.68.79,1.02,1.87,1.02,3.23Zm-7,0c0,1.22.27,2.18.81,2.85.54.67,1.32,1,2.35,1s1.81-.33,2.35-1c.55-.67.83-1.61.83-2.85s-.28-2.18-.83-2.83c-.54-.67-1.32-1-2.33-1s-1.82.33-2.38,1c-.54.67-.81,1.61-.81,2.83Z"/>
    <path d="m312.76,129.32c0,1.45-.38,2.54-1.13,3.27-.75.74-1.85,1.1-3.31,1.1h-2.06v-8.56h2.31c1.38,0,2.42.36,3.13,1.08.71.71,1.06,1.74,1.06,3.1Zm-.65.04c0-1.23-.31-2.16-.94-2.77-.63-.63-1.54-.94-2.73-.94h-1.58v7.52h1.42c2.55,0,3.83-1.27,3.83-3.81Z"/>
    <path d="m321.94,129.41c0,1.36-.34,2.44-1.02,3.23-.68.79-1.62,1.19-2.81,1.19s-2.14-.4-2.81-1.19c-.68-.79-1.02-1.88-1.02-3.25s.34-2.43,1.02-3.21c.69-.79,1.64-1.19,2.83-1.19s2.13.4,2.79,1.19c.68.79,1.02,1.87,1.02,3.23Zm-7,0c0,1.22.27,2.18.81,2.85.54.67,1.32,1,2.35,1s1.81-.33,2.35-1c.55-.67.83-1.61.83-2.85s-.28-2.18-.83-2.83c-.54-.67-1.32-1-2.33-1s-1.82.33-2.38,1c-.54.67-.81,1.61-.81,2.83Z"/>
    <path d="m323.9,133.7v-8.56h.6v8h4.08v.56h-4.69Z"/>
    <path d="m337.27,129.41c0,1.36-.34,2.44-1.02,3.23-.68.79-1.62,1.19-2.81,1.19s-2.14-.4-2.81-1.19c-.68-.79-1.02-1.88-1.02-3.25s.34-2.43,1.02-3.21c.69-.79,1.64-1.19,2.83-1.19s2.13.4,2.79,1.19c.68.79,1.02,1.87,1.02,3.23Zm-7,0c0,1.22.27,2.18.81,2.85.54.67,1.32,1,2.35,1s1.81-.33,2.35-1c.55-.67.83-1.61.83-2.85s-.28-2.18-.83-2.83c-.54-.67-1.32-1-2.33-1s-1.82.33-2.38,1c-.54.67-.81,1.61-.81,2.83Z"/>
    <path d="m342.61,129.38h3.17v3.9c-.83.36-1.77.54-2.81.54-1.35,0-2.39-.38-3.1-1.15-.72-.76-1.08-1.84-1.08-3.25,0-.88.18-1.65.54-2.31.36-.68.88-1.2,1.54-1.56.67-.38,1.43-.56,2.29-.56.93,0,1.76.18,2.5.52l-.23.54c-.74-.34-1.51-.52-2.31-.52-1.13,0-2.02.35-2.69,1.06-.66.7-.98,1.64-.98,2.81,0,1.29.31,2.27.94,2.92.63.64,1.55.96,2.77.96.79,0,1.46-.11,2-.33v-3h-2.54v-.56Z"/>
    <path d="m349.89,129.82l2.5-4.69h.65l-2.85,5.25v3.31h-.6v-3.27l-2.88-5.29h.69l2.5,4.69Z"/>
  </g>
  <g>
    <path d="m108.46,145.32c0,1.45-.38,2.54-1.13,3.27-.75.74-1.85,1.1-3.31,1.1h-2.06v-8.56h2.31c1.38,0,2.42.36,3.13,1.08.71.71,1.06,1.74,1.06,3.1Zm-.65.04c0-1.23-.31-2.16-.94-2.77-.63-.63-1.54-.94-2.73-.94h-1.58v7.52h1.42c2.55,0,3.83-1.27,3.83-3.81Z"/>
    <path d="m110.44,149.7v-8.56h.6v8.56h-.6Z"/>
    <path d="m118.19,147.49c0,.71-.27,1.28-.79,1.71-.52.42-1.21.63-2.08.63-1.06,0-1.86-.12-2.42-.35v-.6c.63.27,1.42.4,2.38.4.69,0,1.25-.16,1.67-.48.42-.32.63-.74.63-1.27,0-.32-.07-.58-.21-.79-.14-.22-.37-.42-.69-.58-.31-.18-.76-.38-1.35-.58-.88-.3-1.48-.63-1.81-.98-.33-.34-.5-.81-.5-1.4,0-.64.25-1.16.75-1.56.51-.4,1.16-.6,1.94-.6s1.56.16,2.27.46l-.21.52c-.71-.3-1.39-.46-2.04-.46s-1.15.15-1.52.44-.56.7-.56,1.21c0,.31.05.56.17.77.13.21.32.4.58.56.26.16.71.34,1.35.56.67.24,1.17.47,1.5.69.33.21.57.45.73.73.15.28.23.61.23,1Z"/>
    <path d="m124.73,147.49c0,.71-.27,1.28-.79,1.71-.52.42-1.21.63-2.08.63-1.06,0-1.86-.12-2.42-.35v-.6c.63.27,1.42.4,2.38.4.69,0,1.25-.16,1.67-.48.42-.32.63-.74.63-1.27,0-.32-.07-.58-.21-.79-.14-.22-.37-.42-.69-.58-.31-.18-.76-.38-1.35-.58-.88-.3-1.48-.63-1.81-.98-.33-.34-.5-.81-.5-1.4,0-.64.25-1.16.75-1.56.51-.4,1.16-.6,1.94-.6s1.56.16,2.27.46l-.21.52c-.71-.3-1.39-.46-2.04-.46s-1.15.15-1.52.44-.56.7-.56,1.21c0,.31.05.56.17.77.13.21.32.4.58.56.26.16.71.34,1.35.56.67.24,1.17.47,1.5.69.33.21.57.45.73.73.15.28.23.61.23,1Z"/>
    <path d="m131.23,149.7h-4.69v-8.56h4.69v.54h-4.08v3.25h3.85v.54h-3.85v3.69h4.08v.54Z"/>
    <path d="m136.93,149.7l-3.19-7.92h-.04c.03.49.04.99.04,1.5v6.42h-.58v-8.56h.94l3.02,7.52h.04l3.04-7.52h.9v8.56h-.6v-6.5c0-.44.02-.91.06-1.4h-.04l-3.21,7.9h-.38Z"/>
    <path d="m143.51,149.7v-8.56h.6v8.56h-.6Z"/>
    <path d="m152.77,149.7h-.6l-5.06-7.6h-.06c.05.91.08,1.58.08,2.04v5.56h-.58v-8.56h.6l5.06,7.58h.04c-.04-.69-.06-1.36-.06-2v-5.58h.58v8.56Z"/>
    <path d="m159.32,146.68h-3.48l-1.19,3.02h-.67l3.44-8.6h.4l3.38,8.6h-.69l-1.19-3.02Zm-3.25-.54h3.06l-1.17-3.08c-.1-.25-.22-.59-.35-1.02-.11.38-.23.72-.35,1.02l-1.19,3.08Z"/>
    <path d="m164.62,149.7h-.6v-8h-2.77v-.56h6.17v.56h-2.79v8Z"/>
    <path d="m168.68,149.7v-8.56h.6v8.56h-.6Z"/>
    <path d="m178.91,145.41c0,1.36-.34,2.44-1.02,3.23-.68.79-1.62,1.19-2.81,1.19s-2.14-.4-2.81-1.19c-.68-.79-1.02-1.88-1.02-3.25s.34-2.43,1.02-3.21c.69-.79,1.64-1.19,2.83-1.19s2.13.4,2.79,1.19c.68.79,1.02,1.87,1.02,3.23Zm-7,0c0,1.22.27,2.18.81,2.85.54.67,1.32,1,2.35,1s1.81-.33,2.35-1c.55-.67.83-1.61.83-2.85s-.28-2.18-.83-2.83c-.54-.67-1.32-1-2.33-1s-1.82.33-2.38,1c-.54.67-.81,1.61-.81,2.83Z"/>
    <path d="m187.1,149.7h-.6l-5.06-7.6h-.06c.05.91.08,1.58.08,2.04v5.56h-.58v-8.56h.6l5.06,7.58h.04c-.04-.69-.06-1.36-.06-2v-5.58h.58v8.56Z"/>
    <path d="m192.64,149.7v-8.56h.6v8.56h-.6Z"/>
    <path d="m201.9,149.7h-.6l-5.06-7.6h-.06c.05.91.08,1.58.08,2.04v5.56h-.58v-8.56h.6l5.06,7.58h.04c-.04-.69-.06-1.36-.06-2v-5.58h.58v8.56Z"/>
    <path d="m207.44,149.7v-8.56h.6v8h4.08v.56h-4.69Z"/>
    <path d="m217.72,146.68h-3.48l-1.19,3.02h-.67l3.44-8.6h.4l3.38,8.6h-.69l-1.19-3.02Zm-3.25-.54h3.06l-1.17-3.08c-.1-.25-.22-.59-.35-1.02-.11.38-.23.72-.35,1.02l-1.19,3.08Z"/>
    <path d="m223.03,149.7h-.6v-8h-2.77v-.56h6.17v.56h-2.79v8Z"/>
    <path d="m227.09,149.7v-8.56h.6v8.56h-.6Z"/>
    <path d="m236.34,149.7h-.6l-5.06-7.6h-.06c.05.91.08,1.58.08,2.04v5.56h-.58v-8.56h.6l5.06,7.58h.04c-.04-.69-.06-1.36-.06-2v-5.58h.58v8.56Z"/>
    <path d="m246.01,146.68h-3.48l-1.19,3.02h-.67l3.44-8.6h.4l3.38,8.6h-.69l-1.19-3.02Zm-3.25-.54h3.06l-1.17-3.08c-.1-.25-.22-.59-.35-1.02-.11.38-.23.72-.35,1.02l-1.19,3.08Z"/>
    <path d="m252.85,149.7l-3.19-7.92h-.04c.03.49.04.99.04,1.5v6.42h-.58v-8.56h.94l3.02,7.52h.04l3.04-7.52h.9v8.56h-.6v-6.5c0-.44.02-.91.06-1.4h-.04l-3.21,7.9h-.38Z"/>
    <path d="m264.12,149.7h-4.69v-8.56h4.69v.54h-4.08v3.25h3.85v.54h-3.85v3.69h4.08v.54Z"/>
    <path d="m266.66,145.97v3.73h-.6v-8.56h2.04c1.07,0,1.85.2,2.35.58.51.39.77.98.77,1.77,0,.57-.16,1.06-.46,1.46-.31.39-.77.68-1.38.85l2.31,3.9h-.71l-2.21-3.73h-2.13Zm0-.52h1.63c.72,0,1.28-.16,1.69-.48.4-.32.6-.8.6-1.44s-.2-1.13-.58-1.42c-.39-.29-1.03-.44-1.92-.44h-1.42v3.77Z"/>
    <path d="m273.19,149.7v-8.56h.6v8.56h-.6Z"/>
    <path d="m279.88,141.55c-1.08,0-1.93.35-2.54,1.04-.61.68-.92,1.62-.92,2.81s.28,2.18.85,2.85c.58.67,1.42,1,2.5,1,.72,0,1.38-.09,1.98-.27v.52c-.56.21-1.27.31-2.13.31-1.2,0-2.14-.39-2.83-1.17-.7-.78-1.04-1.86-1.04-3.27,0-.86.17-1.63.5-2.29s.8-1.18,1.42-1.54c.63-.36,1.34-.54,2.17-.54s1.58.16,2.25.46l-.25.54c-.63-.3-1.28-.46-1.96-.46Z"/>
    <path d="m287.79,146.68h-3.48l-1.19,3.02h-.67l3.44-8.6h.4l3.38,8.6h-.69l-1.19-3.02Zm-3.25-.54h3.06l-1.17-3.08c-.1-.25-.22-.59-.35-1.02-.11.38-.23.72-.35,1.02l-1.19,3.08Z"/>
  </g>
</svg>